<svg xmlns="http://www.w3.org/2000/svg" width="16.281" height="25.813" viewBox="0 0 16.281 25.813"><g transform="translate(-9.5 -8.687)"><path d="M21.455,1.512,9.826,1.5A2.343,2.343,0,0,0,7.5,3.847v21.12a2.343,2.343,0,0,0,2.326,2.347h11.63a2.343,2.343,0,0,0,2.326-2.347V3.847a2.333,2.333,0,0,0-2.326-2.335ZM21.82,23.8H9.463V4.326H21.82Z" transform="translate(2 7.187)"/><path d="M14.325,11.484c-2.007-.522-2.652-1.061-2.652-1.9,0-.964.893-1.636,2.387-1.636,1.574,0,2.157.751,2.21,1.857h1.954a3.524,3.524,0,0,0-2.838-3.368V4.5H12.733V6.41C11.018,6.781,9.639,7.895,9.639,9.6c0,2.042,1.689,3.059,4.155,3.651,2.21.53,2.652,1.308,2.652,2.131,0,.61-.433,1.583-2.387,1.583-1.821,0-2.537-.813-2.635-1.857H9.48A3.7,3.7,0,0,0,12.733,18.5v1.918h2.652v-1.9c1.724-.327,3.094-1.326,3.094-3.139C18.48,12.863,16.332,12.006,14.325,11.484Z" transform="translate(3.647 9)"/></g></svg>